<?xml version="1.0" encoding="UTF-8"?>
<svg width="266px" height="104px" viewBox="0 0 266 104" version="1.1" xmlns="http://www.w3.org/2000/svg" xmlns:xlink="http://www.w3.org/1999/xlink">
    <!-- Generator: Sketch 51.3 (57544) - http://www.bohemiancoding.com/sketch -->
    <title>Group</title>
    <desc>Created with Sketch.</desc>
    <defs></defs>
    <g id="Page-2" stroke="none" stroke-width="1" fill="none" fill-rule="evenodd">
        <g id="Brand-Book-Meshque" transform="translate(-288.000000, -219.000000)">
            <g id="Group" transform="translate(288.000000, 219.000000)">
                <g id="Group-15" transform="translate(0.000000, 0.276000)">
                    <path d="M169.1933,0.4095 L169.1933,50.4705 L151.0553,50.4705 L151.0553,31.8015 C145.4963,35.0495 139.4483,36.6795 132.9233,36.6795 C126.3993,36.6795 120.3693,35.0495 114.8283,31.8015 L114.8283,50.4705 L96.6963,50.4705 L96.6963,0.4095 L114.8283,0.4095 C114.8283,5.4195 116.5903,9.6925 120.1213,13.2355 C123.6463,16.7725 127.9143,18.5415 132.9233,18.5415 C137.9093,18.5415 142.1763,16.7725 145.7253,13.2355 C149.2813,9.6925 151.0553,5.4195 151.0553,0.4095 L169.1933,0.4095 Z" id="Fill-7" fill="#D8127D"></path>
                    <path d="M0.1111,72.2386 C0.1111,69.7156 1.3731,68.4486 3.9021,68.4486 C5.1751,68.4486 6.1351,68.7256 6.7811,69.2806 C7.4331,69.8426 8.0301,70.6756 8.5611,71.7856 L17.5671,89.9356 C17.7061,90.2196 17.8451,90.3526 17.9831,90.3526 C18.1221,90.3526 18.2731,90.2196 18.4301,89.9356 L27.3991,71.7856 C27.9361,70.6516 28.5341,69.8126 29.1801,69.2626 C29.8321,68.7196 30.7911,68.4486 32.0711,68.4486 C34.6181,68.4486 35.8921,69.7156 35.8921,72.2386 L35.8921,103.3236 L31.9621,103.3236 L31.9621,73.1076 C31.9621,72.7816 31.8361,72.6186 31.5761,72.6186 C31.4611,72.6186 31.3771,72.6556 31.3041,72.7276 C31.2321,72.7936 31.1661,72.9086 31.0931,73.0716 L22.0511,91.3296 C21.5201,92.4646 20.9531,93.2856 20.3491,93.7986 C19.7461,94.3056 18.9311,94.5656 17.9111,94.5656 C16.9151,94.5656 16.1301,94.3056 15.5511,93.7986 C14.9651,93.2856 14.3981,92.4646 13.8431,91.3296 L4.9101,73.1076 C4.8371,72.9446 4.7651,72.8236 4.6981,72.7396 C4.6261,72.6616 4.5351,72.6186 4.4271,72.6186 C4.1671,72.6186 4.0341,72.7816 4.0341,73.1076 L4.0341,103.3236 L0.1111,103.3236 L0.1111,72.2386 Z" id="Fill-9" fill="#343534"></path>
                    <path d="M55.9194,98.1795 C55.9194,98.7345 56.0164,99.1035 56.2034,99.2905 C56.3844,99.4775 56.7584,99.5675 57.3074,99.5675 L73.0674,99.5675 L73.0674,103.3285 L55.4364,103.3285 C54.2774,103.3285 53.4084,103.0505 52.8414,102.4895 C52.2734,101.9335 51.9964,101.0645 51.9964,99.8815 L51.9964,71.9965 C51.9964,70.8375 52.2734,69.9745 52.8294,69.4005 C53.3844,68.8395 54.2534,68.5495 55.4364,68.5495 L73.0674,68.5495 L73.0674,72.3035 L57.3074,72.3035 C56.7584,72.3035 56.3844,72.4005 56.2034,72.5875 C56.0164,72.7745 55.9194,73.1425 55.9194,73.6985 L55.9194,83.8205 L72.3374,83.8205 L72.3374,87.2965 L55.9194,87.2965 L55.9194,98.1795 Z" id="Fill-11" fill="#343534"></path>
                    <path d="M91.5274,102.6122 C90.1154,102.0932 89.1194,101.2062 88.5394,99.9562 C87.9604,98.7012 87.6644,96.9142 87.6644,94.5962 L87.6644,93.0632 L91.5994,93.0632 L91.5994,94.4272 C91.5994,95.9542 91.7814,97.0772 92.1554,97.7952 C92.5234,98.5142 93.2054,99.0092 94.2074,99.2742 C95.1974,99.5402 96.7664,99.6732 98.9034,99.6732 C101.1064,99.6732 102.7174,99.5342 103.7684,99.2562 C104.8064,98.9782 105.5124,98.4842 105.8924,97.7772 C106.2544,97.0712 106.4484,95.9852 106.4484,94.5302 C106.4484,92.9492 106.2674,91.8022 105.9284,91.0832 C105.5724,90.3652 104.8424,89.7562 103.7194,89.2432 C102.5914,88.7362 100.6474,88.1202 97.8894,87.3962 C95.0164,86.6352 92.8914,85.9112 91.5094,85.2292 C90.1334,84.5412 89.1434,83.5932 88.5514,82.3742 C87.9604,81.1552 87.6644,79.3982 87.6644,77.1052 C87.6644,74.8592 87.9604,73.1272 88.5394,71.9082 C89.1194,70.6882 90.1214,69.8132 91.5454,69.2822 C92.9704,68.7512 95.0044,68.4852 97.6534,68.4852 L100.4964,68.4852 C103.0984,68.4852 105.0904,68.7332 106.4844,69.2282 C107.8724,69.7292 108.8564,70.5802 109.4414,71.7872 C110.0154,72.9942 110.2984,74.7202 110.2984,76.9662 L110.2984,78.8132 L106.3754,78.8132 L106.3754,77.3462 C106.3754,75.8672 106.1884,74.7692 105.8204,74.0622 C105.4524,73.3562 104.7584,72.8672 103.7684,72.6022 C102.7664,72.3362 101.2274,72.2032 99.1444,72.2032 C96.9894,72.2032 95.3844,72.3422 94.3284,72.6202 C93.2714,72.8972 92.5534,73.3802 92.1674,74.0622 C91.7934,74.7442 91.5994,75.7832 91.5994,77.1772 C91.5994,78.7282 91.7684,79.8632 92.1254,80.5872 C92.4634,81.3052 93.1934,81.9032 94.3094,82.3922 C95.4264,82.8752 97.3344,83.4602 100.0444,84.1302 C102.9474,84.8732 105.0784,85.5732 106.4484,86.2372 C107.8124,86.8952 108.8084,87.8482 109.4414,89.0862 C110.0634,90.3232 110.3714,92.1402 110.3714,94.5302 C110.3714,96.8482 110.0874,98.6282 109.5084,99.8842 C108.9224,101.1332 107.9204,102.0332 106.4964,102.5762 C105.0714,103.1192 103.0134,103.3972 100.3274,103.3972 L97.6174,103.3972 C94.9674,103.3972 92.9394,103.1312 91.5274,102.6122" id="Fill-13" fill="#343534"></path>
                </g>
                <polygon id="Fill-16" fill="#343534" points="146.1562 87.4335 129.7752 87.4335 129.7752 103.6035 125.8512 103.6035 125.8512 68.8245 129.7752 68.8245 129.7752 83.6425 146.1562 83.6425 146.1562 68.8245 150.0852 68.8245 150.0852 103.6035 146.1562 103.6035"></polygon>
                <g id="Group-23" transform="translate(165.000000, 68.276000)" fill="#343534">
                    <path d="M19.9608,1.5799 C21.6328,2.3769 22.8578,3.6379 23.6488,5.3699 C24.4398,7.0969 24.8258,9.3599 24.8258,12.1669 L24.8258,23.7129 C24.8258,26.5139 24.4398,28.7839 23.6488,30.5099 C22.8578,32.2359 21.6328,33.5039 19.9608,34.2999 C18.2888,35.0969 16.1038,35.5019 13.3938,35.5019 L11.7518,35.5019 C9.0418,35.5019 6.8508,35.0969 5.1848,34.2999 C3.5128,33.5039 2.2878,32.2359 1.4968,30.5099 C0.7058,28.7839 0.3138,26.5139 0.3138,23.7129 L0.3138,12.1669 C0.3138,9.3599 0.7058,7.0969 1.4968,5.3699 C2.2878,3.6379 3.5128,2.3769 5.1848,1.5799 C6.8508,0.7769 9.0418,0.3789 11.7518,0.3789 L13.3938,0.3789 C16.1038,0.3789 18.2888,0.7769 19.9608,1.5799 Z M20.9028,12.1669 C20.9028,10.1269 20.6308,8.5269 20.0998,7.3679 C19.5688,6.2089 18.7048,5.3769 17.5098,4.8639 C16.3148,4.3559 14.6798,4.1029 12.5908,4.1029 C10.4788,4.1029 8.8308,4.3559 7.6358,4.8639 C6.4408,5.3769 5.5778,6.2089 5.0458,7.3679 C4.5088,8.5269 4.2438,10.1269 4.2438,12.1669 L4.2438,23.7129 C4.2438,25.5419 4.4548,27.0149 4.8888,28.1319 C5.3178,29.2419 6.0118,30.0809 6.9718,30.6489 C7.9368,31.2159 9.2408,31.5719 10.8828,31.7109 L10.8828,21.7279 L14.2268,21.7279 L14.2268,31.7109 C15.8928,31.5959 17.2148,31.2519 18.1678,30.6849 C19.1338,30.1169 19.8278,29.2719 20.2568,28.1619 C20.6908,27.0509 20.9028,25.5659 20.9028,23.7129 L20.9028,12.1669 Z" id="Fill-17"></path>
                    <path d="M42.4756,32.7883 C40.8636,31.0983 40.0616,28.4183 40.0616,24.7543 L40.0616,0.5503 L44.0936,0.5503 L44.0936,24.7543 C44.0936,26.6553 44.3106,28.0803 44.7386,29.0283 C45.1616,29.9813 45.9216,30.6453 47.0146,31.0133 C48.1066,31.3883 49.7246,31.5693 51.8856,31.5693 C54.0166,31.5693 55.6156,31.3883 56.6836,31.0133 C57.7466,30.6453 58.4886,29.9813 58.9116,29.0283 C59.3216,28.0803 59.5326,26.6553 59.5326,24.7543 L59.5326,0.5503 L63.6006,0.5503 L63.6006,24.7543 C63.6006,28.4183 62.7866,31.0983 61.1686,32.7883 C59.5446,34.4783 56.9916,35.3233 53.5216,35.3233 L50.1106,35.3233 C46.6286,35.3233 44.0936,34.4783 42.4756,32.7883" id="Fill-19"></path>
                    <path d="M83.6306,30.1795 C83.6306,30.7345 83.7276,31.1035 83.9146,31.2905 C84.0956,31.4775 84.4696,31.5675 85.0186,31.5675 L100.7786,31.5675 L100.7786,35.3285 L83.1476,35.3285 C81.9886,35.3285 81.1196,35.0505 80.5526,34.4895 C79.9846,33.9335 79.7076,33.0645 79.7076,31.8815 L79.7076,3.9965 C79.7076,2.8375 79.9846,1.9745 80.5406,1.4005 C81.0956,0.8395 81.9646,0.5495 83.1476,0.5495 L100.7786,0.5495 L100.7786,4.3035 L85.0186,4.3035 C84.4696,4.3035 84.0956,4.4005 83.9146,4.5875 C83.7276,4.7745 83.6306,5.1425 83.6306,5.6985 L83.6306,15.8205 L100.0486,15.8205 L100.0486,19.2965 L83.6306,19.2965 L83.6306,30.1795 Z" id="Fill-21"></path>
                </g>
            </g>
        </g>
    </g>
</svg>